#!OML:ASF I:\Actors\actors\Patient Classification 1\Patient 1\Session 1\Subject1.ASF
:FULLY-SPECIFIED
:DEGREES
889
root 0.700294 17.6658 8.22414 7.78122 -1.577 -11.031
lowerback 2.29941 1.50372 7.49608
upperback -2.82228 2.43099 2.6987
thorax -4.0372 1.02577 -1.53017
lowerneck -15.1172 -6.14613 -4.59918
upperneck 18.0441 -9.64839 10.4785
head 8.90329 -3.81298 3.10482
rclavicle 8.23714e-015 5.96354e-015
rhumerus -23.6486 35.6696 -101.392
rradius 121.571
rwrist 4.60633
rhand -14.4706 -40.7841
rfingers 7.12502
rthumb 11.6753 -70.4388
lclavicle 8.23714e-015 5.96354e-015
lhumerus -41.1023 -44.4953 110.896
lradius 118.063
lwrist 18.5578
lhand -38.4688 -43.2564
lfingers 7.12502
lthumb -11.4914 -13.5913
rfemur -9.78287 18.9617 27.9708
rtibia 12.4401
rfoot -13.0362 -14.5884
rtoes -3.69424
lfemur -1.10778 -30.5794 -4.35845
ltibia 0.463739
lfoot -13.3855 40.2809
ltoes -1.92733
890
root 0.685367 17.6828 8.22467 8.20901 -2.40323 -9.41255
lowerback 1.75986 1.94618 5.37521
upperback -2.92 2.88131 2.28925
thorax -3.8628 1.31145 -0.784274
lowerneck -14.9782 -6.26532 -4.5404
upperneck 18.6022 -9.82082 10.1619
head 9.06108 -3.90787 2.97037
rclavicle 1.56667e-014 -8.74653e-015
rhumerus -23.1066 35.1455 -100.924
rradius 121.762
rwrist 4.29148
rhand -14.1268 -40.3872
rfingers 7.12502
rthumb 12.0068 -70.0228
lclavicle 1.56667e-014 -8.74653e-015
lhumerus -40.1214 -44.5751 110.863
lradius 118.257
lwrist 19.1547
lhand -37.3744 -41.0531
lfingers 7.12502
lthumb -10.4358 -11.3321
rfemur -10.5511 19.5703 25.8598
rtibia 12.6628
rfoot -13.0357 -14.6211
rtoes -3.65838
lfemur -1.48417 -30.5669 -6.12934
ltibia 0.659837
lfoot -13.9437 40.7877
ltoes -0.958359
891
root 0.6832 17.6874 8.22292 8.27358 -2.67913 -9.12541
lowerback 1.68868 2.18675 4.9614
upperback -2.95842 3.18219 2.2202
thorax -3.86305 1.4723 -0.637365
lowerneck -14.8356 -6.29951 -4.38837
upperneck 19.0429 -9.89482 9.90075
head 9.16891 -3.94848 2.85213
rclavicle 4.23411e-014 1.64991e-014
rhumerus -23.7657 35.7695 -101.366
rradius 122.114
rwrist 4.73416
rhand -15.9102 -40.0339
rfingers 7.12502
rthumb 10.2867 -69.7623
lclavicle 4.23411e-014 1.64991e-014
lhumerus -38.1947 -44.1622 109.871
lradius 118.54
lwrist 20.3968
lhand -37.2987 -38.835
lfingers 7.12502
lthumb -10.3628 -9.11032
rfemur -10.6464 19.6902 25.5009
rtibia 12.6564
rfoot -13.032 -14.5289
rtoes -3.6146
lfemur -1.51379 -30.2619 -6.45892
ltibia 0.684018
lfoot -13.8239 40.7191
ltoes -1.08612
892
root 0.693095 17.677 8.21574 8.03474 -2.3586 -10.3185
lowerback 2.0622 2.25546 6.43061
upperback -2.93265 3.36981 2.54554
thorax -3.98543 1.52273 -1.13786
lowerneck -14.8972 -6.33762 -4.54164
upperneck 19.555 -9.939 9.79411
head 9.36203 -3.97226 2.83611
rclavicle 2.47611e-014 -1.39149e-015
rhumerus -25.2171 36.7142 -102.348
rradius 122.56
rwrist 5.46433
rhand -17.3737 -40.9919
rfingers 7.12502
rthumb 8.87478 -70.7852
lclavicle 2.47611e-014 -1.39149e-015
lhumerus -35.9209 -43.5553 108.329
lradius 118.596
lwrist 20.955
lhand -38.0111 -37.5448
lfingers 7.12502
lthumb -11.0499 -7.85565
rfemur -10.1272 19.3607 27.0652
rtibia 12.4433
rfoot -12.9633 -14.3489
rtoes -3.80583
lfemur -1.30454 -29.5663 -5.0957
ltibia 0.612777
lfoot -13.1623 39.9491
ltoes -2.21544
893
root 0.676284 17.698 8.22375 8.52319 -2.25643 -8.94525
lowerback 1.36814 2.32907 4.70103
upperback -3.07954 3.34994 2.2857
thorax -3.81758 1.56499 -0.421369
lowerneck -15.2142 -6.33162 -4.98248
upperneck 20.2059 -9.92831 9.97926
head 9.68129 -3.9492 2.97139
rclavicle 1.8077e-014 9.74045e-015
rhumerus -27.3809 37.9827 -103.962
rradius 122.931
rwrist 6.22311
rhand -18.1488 -41.2137
rfingers 7.12502
rthumb 8.12677 -71.0374
lclavicle 1.8077e-014 9.74045e-015
lhumerus -33.658 -42.4479 106.47
lradius 118.591
lwrist 20.942
lhand -37.5966 -37.0154
lfingers 7.12502
lthumb -10.6501 -7.30528
rfemur -10.7514 19.6897 25.2332
rtibia 12.3028
rfoot -12.9576 -14.9035
rtoes -3.58535
lfemur -2.23098 -29.9036 -6.28473
ltibia 0.947275
lfoot -13.296 40.0944
ltoes -1.91133
894
root 0.669964 17.7069 8.22988 8.67287 -1.73281 -8.48373
lowerback 1.10381 2.18238 4.14125
upperback -3.15145 3.12227 2.26566
thorax -3.77743 1.46886 -0.113064
lowerneck -15.6642 -6.22193 -5.4004
upperneck 20.94 -9.82123 10.3275
head 10.0593 -3.85646 3.17594
rclavicle 1.04362e-015 1.61016e-014
rhumerus -30.1027 39.7715 -106.213
rradius 123.084
rwrist 6.42565
rhand -18.8691 -41.2235
rfingers 7.12502
rthumb 7.43148 -71.073
lclavicle 1.04362e-015 1.61016e-014
lhumerus -31.7136 -40.9532 104.751
lradius 118.688
lwrist 20.7993
lhand -37.1311 -36.3582
lfingers 7.12502
lthumb -10.2011 -6.6255
rfemur -10.7991 19.6536 24.6417
rtibia 12.0526
rfoot -12.9917 -15.4122
rtoes -3.35412
lfemur -2.72011 -30.3015 -6.59072
ltibia 1.09396
lfoot -13.1829 40.0013
ltoes -2.02387
895
root 0.66898 17.7059 8.23465 8.61807 -1.02207 -8.74295
lowerback 1.11072 1.90792 4.46652
upperback -3.19608 2.77366 2.42456
thorax -3.83279 1.28643 -0.117264
lowerneck -16.0446 -6.0061 -5.32748
upperneck 21.7047 -9.58879 10.2532
head 10.377 -3.71598 3.17432
rclavicle -1.35049e-014 -2.96189e-014
rhumerus -33.0296 41.6921 -108.936
rradius 122.976
rwrist 6.2396
rhand -19.857 -42.0402
rfingers 7.12502
rthumb 6.47785 -71.9211
lclavicle -1.35049e-014 -2.96189e-014
lhumerus -30.6218 -39.683 103.633
lradius 118.778
lwrist 20.8859
lhand -37.772 -35.5466
lfingers 7.12502
lthumb -10.8194 -5.84528
rfemur -10.541 19.5086 24.999
rtibia 11.7947
rfoot -13.0337 -15.8778
rtoes -2.97287
lfemur -2.90522 -30.6833 -6.13772
ltibia 1.05059
lfoot -12.8735 39.8158
ltoes -2.54224
896
root 0.666692 17.702 8.23956 8.54143 -0.360919 -9.06263
lowerback 1.18344 1.60598 4.86836
upperback -3.28499 2.39731 2.55959
thorax -3.97109 1.08504 -0.189416
lowerneck -16.2508 -5.80027 -4.96954
upperneck 22.3986 -9.39105 9.97447
head 10.6165 -3.59971 3.05035
rclavicle -4.76462e-015 1.45113e-014
rhumerus -34.2915 41.6128 -110.118
rradius 122.897
rwrist 5.15036
rhand -19.7287 -41.179
rfingers 7.12502
rthumb 6.60168 -71.0561
lclavicle -4.76462e-015 1.45113e-014
lhumerus -31.0298 -39.1896 103.51
lradius 118.712
lwrist 21.1336
lhand -39.2792 -35.9362
lfingers 7.12502
lthumb -12.2728 -6.31634
rfemur -10.2933 19.4571 25.4284
rtibia 11.5742
rfoot -13.1004 -16.3453
rtoes -2.51609
lfemur -2.97498 -31.2337 -5.65002
ltibia 0.895214
lfoot -12.6092 39.8452
ltoes -3.00918
897
root 0.665198 17.6975 8.24712 8.46163 0.0902304 -9.14499
lowerback 1.2624 1.32136 5.04566
upperback -3.39677 2.03453 2.55834
thorax -4.14118 0.893852 -0.276845
lowerneck -16.3821 -5.6247 -4.53216
upperneck 23.1319 -9.28085 9.75183
head 10.8675 -3.51144 2.92181
rclavicle 1.20886e-014 -2.44505e-014
rhumerus -33.9897 40.715 -109.887
rradius 122.621
rwrist 4.95281
rhand -17.6324 -41.7564
rfingers 7.12502
rthumb 8.6251 -71.5602
lclavicle 1.20886e-014 -2.44505e-014
lhumerus -32.7424 -39.446 104.391
lradius 118.325
lwrist 20.3851
lhand -38.2516 -37.7971
lfingers 7.12502
lthumb -11.2819 -8.12055
rfemur -10.0791 19.4646 25.5731
rtibia 11.4295
rfoot -13.1852 -16.741
rtoes -2.35264
lfemur -2.8292 -32.0522 -5.59501
ltibia 0.642647
lfoot -12.5584 40.255
ltoes -2.9377
898
root 0.67284 17.6873 8.25387 8.24064 0.322559 -9.58272
lowerback 1.49028 1.08273 5.73374
upperback -3.49479 1.76302 2.55829
thorax -4.3688 0.728935 -0.652101
lowerneck -16.4136 -5.45492 -3.95549
upperneck 23.9509 -9.21781 9.48204
head 11.1297 -3.43743 2.74826
rclavicle 6.38596e-015 2.16675e-014
rhumerus -32.6401 39.8021 -108.805
rradius 122.141
rwrist 3.71349
rhand -15.1556 -42.4739
rfingers 7.12502
rthumb 11.0147 -72.1649
lclavicle 6.38596e-015 2.16675e-014
lhumerus -35.068 -39.8939 105.933
lradius 117.668
lwrist 18.7198
lhand -39.1783 -39.1056
lfingers 7.12502
lthumb -12.1755 -9.47996
rfemur -9.71419 19.3669 26.1842
rtibia 11.3503
rfoot -13.2151 -16.8267
rtoes -2.54778
lfemur -2.29121 -32.7746 -5.36485
ltibia 0.278518
lfoot -12.5823 40.7663
ltoes -2.73915
899
root 0.689957 17.672 8.25656 7.87976 0.351943 -10.4521
lowerback 1.87709 0.91355 7.00225
upperback -3.56025 1.62666 2.58997
thorax -4.64285 0.608241 -1.32334
lowerneck -16.4178 -5.41202 -3.81236
upperneck 24.788 -9.34457 9.65228
head 11.4616 -3.43537 2.78038
rclavicle -1.62072e-014 -3.06128e-014
rhumerus -30.673 38.4673 -107.209
rradius 121.552
rwrist 2.05267
rhand -12.8402 -42.5251
rfingers 7.12502
rthumb 13.2473 -72.0841
lclavicle -1.62072e-014 -3.06128e-014
lhumerus -37.491 -40.3831 107.691
lradius 117.018
lwrist 18.2017
lhand -40.1932 -39.8678
lfingers 7.12502
lthumb -13.154 -10.3027
rfemur -9.18259 19.1733 27.3392
rtibia 11.2626
rfoot -13.1831 -16.5842
rtoes -2.83119
lfemur -1.41446 -33.2594 -4.8295
ltibia -0.181146
lfoot -12.6445 41.2399
ltoes -2.58619
